<?xml version="1.0" encoding="utf-8" ?>
<svg baseProfile="full" height="200mm" version="1.1" viewBox="0,0,200,200" width="200mm" xmlns="http://www.w3.org/2000/svg" xmlns:ev="http://www.w3.org/2001/xml-events" xmlns:xlink="http://www.w3.org/1999/xlink"><defs /><rect fill="#1a1a1a" height="200" width="200" x="0" y="0" /><text alignment-baseline="middle" fill="#e1ed5e" style="dominant-baseline: central; font-size:9.0px; font-family:Arial;" text-anchor="middle" x="100.0" y="100.0">2023</text><line stroke="#e1ed5e" stroke-width="0.3" x1="100.0" x2="100.0" y1="15.0" y2="10.0" /><path d="M 100.0 14.0 a86.0,86.0 0 0,1 42.46469731375804,11.215312516191453" fill="none" id="id1" stroke="none" /><text fill="#e1ed5e" style="font-size:6.75px; font-family:Arial;" text-anchor="middle"><textPath startOffset="22.20632615414155" xlink:href="#id1">January</textPath></text><line stroke="#e1ed5e" stroke-width="0.3" x1="143.23703022742887" x2="145.7803849466894" y1="26.81831364943548" y2="22.513508569990506" /><path d="M 143.74570117128098 25.957352633546492 a86.0,86.0 0 0,1 28.547481713284135,27.462654790039103" fill="none" id="id2" stroke="none" /><text fill="#e1ed5e" style="font-size:6.75px; font-family:Arial;" text-anchor="middle"><textPath startOffset="19.985693538727396" xlink:href="#id2">February</textPath></text><line stroke="#e1ed5e" stroke-width="0.3" x1="172.23445277983987" x2="176.4835382374775" y1="55.19839476539836" y2="52.563006222186495" /><path d="M 173.08426987136738 54.67131705675599 a86.0,86.0 0 0,1 12.851231095245387,41.99856678651699" fill="none" id="id3" stroke="none" /><text fill="#e1ed5e" style="font-size:6.75px; font-family:Arial;" text-anchor="middle"><textPath startOffset="22.20632615414155" xlink:href="#id3">March</textPath></text><path d="M 120.94382443527127 98.46500227214037 l 4.318784863142433 -0.3165288637959473 a25.330368715909092,25.330368715909092 0 0,0 0.028128058480725828,0.43512861492346133 l -4.323593512627574 0.24214118461945075" fill="#ff2803" stroke="none" /><path d="M 120.96714384426684 98.82574320788733 l 6.670028629301263 -0.3735523769816933 a27.68048076818182,27.68048076818182 0 0,0 0.022548245157413556,0.47595781755838623 l -6.675470482692173 0.2586834528003073" fill="#ff4906" stroke="none" /><line stroke="#e1ed5e" stroke-width="0.3" x1="184.98032266829074" x2="189.97916517819016" y1="98.17113171792111" y2="98.06355123074" /><path d="M 185.9800911702706 98.14961562048488 a86.0,86.0 0 0,1 -9.607161424134198,41.387399972396054" fill="none" id="id4" stroke="none" /><text fill="#e1ed5e" style="font-size:6.75px; font-family:Arial;" text-anchor="middle"><textPath startOffset="21.466115282336823" xlink:href="#id4">April</textPath></text><path d="M 120.99513854157772 99.54816195383933 l 3.063381578112019 -0.0659272785534428 a24.064090909090908,24.064090909090908 0 0,0 0.00534794957101777,0.4142045879225334 l -3.064062534800752 0.013186432570446698" fill="#ff1502" stroke="none" /><path d="M 120.99980553446 99.90962569577887 l 7.71513778921805 -0.03320269840244778 a28.715209234090906,28.715209234090906 0 0,0 -0.0021272537541887297,0.4942988556915187 l -7.714566238174359 -0.09960563549275564" fill="#ff5808" stroke="none" /><path d="M 120.99824983174949 100.27111621757518 l 1.8240450416892087 0.02355092430807349 a22.824197072727273,22.824197072727273 0 0,0 -0.008453579718890908,0.39280463183319453 l -1.8233693992853104 -0.05494537193138287" fill="#ff0300" stroke="none" /><path d="M 120.95626037817324 101.35467743843564 l 2.8922221228413374 0.1869621767459224 a23.898258729545454,23.898258729545454 0 0,0 -0.030070201788791634,0.41028401252150964 l -2.8885753623882082 -0.23671932576420227" fill="#ff1302" stroke="none" /><path d="M 120.92983693683757 101.71520430193887 l 4.532229087480597 0.3714170756169198 a25.547422472727273,25.547422472727273 0 0,0 -0.03969023677394503,0.4379784554663961 l -4.525164254429577 -0.4493769196318864" fill="#ff2b04" stroke="none" /><path d="M 120.89721153311464 102.0752229133903 l 5.3285338999762075 0.5291565157621518 a26.354743704545456,26.354743704545456 0 0,0 -0.04871573786381412,0.4510472296760607 l -5.318635860611342 -0.620800067323004" fill="#ff3605" stroke="none" /><path d="M 120.8583938346157 102.4346265915055 l 4.700217714628797 0.548617267687685 a25.732127161363636,25.732127161363636 0 0,0 -0.05513842314902618,0.43950748367620146 l -4.690077782232923 -0.6294425056512815" fill="#ff2d04" stroke="none" /><path d="M 120.81339534386255 102.79330883721812 l 2.3024049449583637 0.30899946757141433 a23.323047395454545,23.323047395454545 0 0,0 -0.056825993008248386,0.39744086274661566 l -2.296744900933514 -0.3485858022984394" fill="#ff0a01" stroke="none" /><path d="M 120.76222939487914 103.15116336523771 l 6.329211565849421 0.9606087688281969 a27.401694170454544,27.401694170454544 0 0,0 -0.0747912874942364,0.4657254186204691 l -6.3117385239938955 -1.069413417141871" fill="#ff4506" stroke="none" /><path d="M 120.70491114924044 103.5080841355445 l 5.496305902841925 0.9312526580229584 a26.57463990681818,26.57463990681818 0 0,0 -0.08029787836393258,0.4503531451834916 l -5.479461582138804 -1.0257245539396684" fill="#ff3905" stroke="none" /><path d="M 120.5718875245553 104.21870165774334 l 3.7252352388390366 0.7639384601347545 a24.80275946590909,24.80275946590909 0 0,0 -0.08936783987021095,0.41749679578779353 l -3.7115333602443825 -0.8279490753387171" fill="#ff2003" stroke="none" /><path d="M 120.49622156327973 104.57218783832717 l 6.7809164189077915 1.5126506847870997 a27.947585161363634,27.947585161363634 0 0,0 -0.10878189498559727,0.4686295565112524 l -6.753873957991641 -1.6291488986469171" fill="#ff4d07" stroke="none" /><path d="M 120.41448212921028 104.9243191809786 l 19.18039388213847 4.626636174002853 a40.730516256818184,40.730516256818184 0 0,0 -0.17027040429855836,0.6801456256303773 l -19.09791216354485 -4.956109639030626" fill="#fff617" stroke="none" /><path d="M 120.32669344350535 105.2749913415812 l 6.666443830411108 1.7300124873872134 a27.887264809090908,27.887264809090908 0 0,0 -0.12457895034795613,0.46360461875181425 l -6.635676803721375 -1.8445080393145759" fill="#ff4c07" stroke="none" /><path d="M 120.23288151984713 105.62410040840565 l 3.5226836357143685 0.9791945084475936 a24.65624423181818,24.65624423181818 0 0,0 -0.11718451052714735,0.4079346543084999 l -3.505306488301122 -1.0396866382606755" fill="#ff1e03" stroke="none" /><path d="M 120.13307415673323 105.97154293290107 l 6.367657899839522 1.8886704650716029 a27.641847879545455,27.641847879545455 0 0,0 -0.13922702210066834,0.4550019638465704 l -6.334204105232722 -1.9979994014702305" fill="#ff4906" stroke="none" /><path d="M 120.02730092923936 106.31721596034902 l 1.5386673528922856 0.4853421833377472 a22.61339835681818,22.61339835681818 0 0,0 -0.12029008701490754,0.3702148204911623 l -1.5300850148611311 -0.5117559038067047" fill="#ff0000" stroke="none" /><path d="M 119.9155931802556 106.66101706037122 l 4.1144235450326105 1.3761199668522015 a25.338454479545454,25.338454479545454 0 0,0 -0.1419064084058149,0.4124464477446586 l -4.090126305683565 -1.4467391176861604" fill="#ff2803" stroke="none" /><path d="M 119.79798401119884 107.00284435728193 l 6.014574852967485 2.1274454786269246 a27.379744111363635,27.379744111363635 0 0,0 -0.16098733988754366,0.4429680180592478 l -5.977063252074714 -2.2306612936923034" fill="#ff4506" stroke="none" /><path d="M 119.67450827220406 107.3425965602758 l 7.095589498122546 2.6480992724809314 a28.573626613636364,28.573626613636364 0 0,0 -0.17593968447154276,0.4593229978510913 l -7.048955534057497 -2.7698458371651666" fill="#ff5607" stroke="none" /><path d="M 119.54520255179757 107.68017299344265 l 4.03375760384515 1.5850414509158532 a25.334000093181817,25.334000093181817 0 0,0 -0.1629789134758047,0.40450029744352783 l -4.005876076111956 -1.6542411162021944" fill="#ff2803" stroke="none" /><path d="M 119.41010516605496 108.01547362559984 l 5.452971939452475 2.2518246237148456 a26.899628556818183,26.899628556818183 0 0,0 -0.18041839469138693,0.42645579031822417 l -5.413402563568776 -2.3453549396992335" fill="#ff3e05" stroke="none" /><path d="M 119.26925614724726 108.34839909993367 l 19.883362304377183 8.614460397280611 a42.669264511363636,42.669264511363636 0 0,0 -0.2977886248618975,0.6714347351625543 l -19.732132594784012 -8.955443468935853" fill="#f1ff19" stroke="none" /><path d="M 119.12269723197855 108.67885076344098 l 5.253480389414775 2.384296092506675 a26.769222136363638,26.769222136363638 0 0,0 -0.1940454807908392,0.41795670252709277 l -5.211660291784105 -2.4743728623125985" fill="#ff3c05" stroke="none" /><path d="M 118.81262510543309 109.33194174019688 l 3.4491237892165625 1.710926682231096 a24.85015909090909,24.85015909090909 0 0,0 -0.19338314545996205,0.38156329225626856 l -3.4191619739703314 -1.7700441861900589" fill="#ff2103" stroke="none" /><path d="M 118.64920377521936 109.65438752849418 l 11.818932892545272 6.11846809618319 a34.30875,34.30875 0 0,0 -0.276017964687581,0.5221219691030281 l -11.711862419632796 -6.321005080372353" fill="#ffa40f" stroke="none" /><line stroke="#e1ed5e" stroke-width="0.3" x1="174.80103733775053" x2="179.2010983576182" y1="140.37084112569926" y2="142.7455964860345" /><path d="M 175.68104954172406 140.8457921977663 a86.0,86.0 0 0,1 -30.038265399797805,32.042727171017184" fill="none" id="id5" stroke="none" /><text fill="#e1ed5e" style="font-size:6.75px; font-family:Arial;" text-anchor="middle"><textPath startOffset="22.206326154141568" xlink:href="#id5">May</textPath></text><path d="M 118.48025628344425 109.97397251340804 l 3.943854693216852 2.1285364068386716 a25.481590909090908,25.481590909090908 0 0,0 -0.2116471704405461,0.38420109142593467 l -3.9066311133247984 -2.1961080166624125" fill="#ff2a04" stroke="none" /><path d="M 118.12598468904814 110.60418214915192 l 12.44019285545172 7.27784301227477 a35.41268181818182,35.41268181818182 0 0,0 -0.3123383769305213,0.5234970854054283 l -12.313073602822971 -7.490902191566303" fill="#ffb210" stroke="none" /><path d="M 117.94076556474637 110.91462005526583 l 3.688050557571156 2.2436985999972583 a25.316931818181818,25.316931818181818 0 0,0 -0.2297033679275661,0.3703549682438424 l -3.648882549975627 -2.3068498996063744" fill="#ff2703" stroke="none" /><path d="M 117.55443506779139 111.5257021239791 l 7.931219676803311 5.207394890331717 a30.487950627272724,30.487950627272724 0 0,0 -0.2918087332606227,0.43621446309577944 l -7.840407838131967 -5.343146267633303" fill="#ff700a" stroke="none" /><path d="M 117.35343817320211 111.8261652097733 l 14.440821334358978 9.84125088990566 a38.47534090909091,38.47534090909091 0 0,0 -0.37767961293464525,0.5440756511089413 l -14.269280814262196 -10.088367803201622" fill="#ffda14" stroke="none" /><path d="M 117.14729908036423 112.12312394758627 l 2.3464519946107507 1.6589393020094754 a23.87365909090909,23.87365909090909 0 0,0 -0.24012377285409026,0.33351091867565835 l -2.3175484293810578 -1.6990838261362649" fill="#ff1302" stroke="none" /><path d="M 116.93607887273984 112.41649034213515 l 5.840637745794416 4.281996010262695 a28.242136363636362,28.242136363636362 0 0,0 -0.29081160919510507,0.3895896742708135 l -5.766064869904218 -4.381898564042824" fill="#ff5107" stroke="none" /><path d="M 116.71984013943494 112.70617746262583 l 8.922622299648294 6.780712101661598 a32.20674998863636,32.20674998863636 0 0,0 -0.3392339779546864,0.43850564570685163 l -8.80458150447554 -6.933295741481702" fill="#ff880c" stroke="none" /><path d="M 116.498646956653 112.99209946851258 l 12.389733925948374 9.7564761508771 a36.77004545454545,36.77004545454545 0 0,0 -0.3958594595334078,0.4938955419423736 l -12.219956554360111 -9.968299526397724" fill="#ffc412" stroke="none" /><path d="M 116.27256486870786 113.27417163493432 l 8.829345765352986 7.202444854827775 a32.39440909090909,32.39440909090909 0 0,0 -0.3561904114369463,0.4290542962422715 l -8.704059354022498 -7.353360408183817" fill="#ff8a0c" stroke="none" /><path d="M 116.0416608686014 113.55231037782055 l 26.499555734554484 22.387345495625592 a55.69034004545454,55.69034004545454 0 0,0 -0.6249450369648405,0.7269522648543296 l -26.11026818801886 -22.84017485964145" fill="#5eff29" stroke="none" /><path d="M 115.80600337817218 113.82643327865902 l 13.838515184939247 12.105356572585945 a39.385977272727274,39.385977272727274 0 0,0 -0.4507652897834219,0.5064395816016927 l -13.628091045507492 -12.341770323928506" fill="#ffe515" stroke="none" /><path d="M 115.56566222782051 114.09645910891815 l 4.096599286321854 3.7099317382107335 a26.526818181818182,26.526818181818182 0 0,0 -0.30942092371812824,0.3358153013214048 l -4.032131954608001 -3.7798982943334734" fill="#ff3905" stroke="none" /><path d="M 115.32070863581623 114.36230785411682 l 9.277037276910272 8.69670382175533 a33.71597727272727,33.71597727272727 0 0,0 -0.400567402066723,0.41999331961958974 l -9.125963323464585 -8.855104257957427" fill="#ff9c0e" stroke="none" /><path d="M 114.81725581225074 114.88116024355365 l 3.0439358019757825 3.057063805488215 a25.314068181818183,25.314068181818183 0 0,0 -0.31142336763500567,0.3047933111611296 l -2.9908624819649825 -3.109007219571917" fill="#ff2703" stroke="none" /><path d="M 113.48314897796784 116.09983520530334 l 9.680288095772818 11.558949866716649 a36.077045454545456,36.077045454545456 0 0,0 -0.4795324314387909,0.3946225446724065 l -9.479885535789338 -11.723867530246233" fill="#ffbb11" stroke="none" /><path d="M 113.20401910651253 116.32954008644616 l 7.201291965885937 8.905908487601105 a32.45311363636364,32.45311363636364 0 0,0 -0.4374100310840518,0.3475049829407602 l -7.046924442084534 -9.028547384546991" fill="#ff8b0c" stroke="none" /><path d="M 112.63410532772338 116.77436683061366 l 8.850190782070221 11.750443964844868 a35.710499999999996,35.710499999999996 0 0,0 -0.49419085780323135,0.3655905821680227 l -8.646614953848426 -11.901044495752659" fill="#ffb610" stroke="none" /><path d="M 112.34349029814194 116.9893568818739 l 6.744595312452918 9.28313904895482 a32.47459090909091,32.47459090909091 0 0,0 -0.4550659354205953,0.324677462172628 l -6.583802049183439 -9.397860772971667" fill="#ff8b0c" stroke="none" /><path d="M 111.7513745106137 117.40417183066458 l 5.336192334592314 7.90307620856087 a30.53590909090909,30.53590909090909 0 0,0 -0.43815438124129763,0.29038483205857835 l -5.199363254611052 -7.993759061710767" fill="#ff710a" stroke="none" /><path d="M 111.45004920935366 117.60387380957326 l 10.635274116751708 16.351198152805676 a40.50565909090909,40.50565909090909 0 0,0 -0.5877529259563422,0.37513172591254923 l -10.352239388748435 -16.531844307542034" fill="#fff316" stroke="none" /><line stroke="#e1ed5e" stroke-width="0.3" x1="143.8653032363475" x2="146.44561519142675" y1="172.8068346515853" y2="177.08958963109032" /><path d="M 144.38136562736335 173.6633856474863 a86.0,86.0 0 0,1 -40.68145358897372,12.25698825130547" fill="none" id="id6" stroke="none" /><text fill="#e1ed5e" style="font-size:6.75px; font-family:Arial;" text-anchor="middle"><textPath startOffset="21.466115282336833" xlink:href="#id6">June</textPath></text><path d="M 110.8373102113329 117.98757091392108 l 7.7001552076568345 12.780577942770783 a35.92097727272727,35.92097727272727 0 0,0 -0.532369630063429,0.3145333612148984 l -7.479017706565023 -12.911229876279432" fill="#ffb911" stroke="none" /><path d="M 110.5260780823613 118.17145234162733 l 7.657004117775861 13.218492615874224 a36.27606818181818,36.27606818181818 0 0,0 -0.5430203221050116,0.3083411108510835 l -7.428335028749651 -13.348336892519935" fill="#ffbd11" stroke="none" /><path d="M 110.21172684928248 118.3499491758327 l 4.490838966673095 8.06980719437188 a30.235227272727272,30.235227272727272 0 0,0 -0.4569510197300234,0.24916612979587588 l -4.351265135074421 -8.145913975927526" fill="#ff6d0a" stroke="none" /><path d="M 109.57404056367764 118.69057910512821 l 3.6450983527892666 7.1160132083888135 a28.995272727272727,28.995272727272727 0 0,0 -0.4461766227376576,0.22372222111541087 l -3.522067822368849 -7.177703270413526" fill="#ff5c08" stroke="none" /><path d="M 109.2508944713604 118.85261126421891 l 13.313088382295717 27.131049951400122 a51.22138636363636,51.22138636363636 0 0,0 -0.7948762353987959,0.3815888975406981 l -12.84409947889669 -27.35619312544038" fill="#8eff24" stroke="none" /><path d="M 108.59647513512805 119.15986991738527 l 2.9335471398624455 6.538305609307723 a28.166249999999998,28.166249999999998 0 0,0 -0.4440601451152877,0.19466291789381282 l -2.8205663200894038 -6.58783308049599" fill="#ff5007" stroke="none" /><path d="M 108.2653958097858 119.30500536409082 l 4.426683005854601 10.33914662283637 a32.24693181818182,32.24693181818182 0 0,0 -0.5121558145239555,0.21408117200807983 l -4.248055731833185 -10.413812837864423" fill="#ff880c" stroke="none" /><path d="M 107.59598834532513 119.57807347666477 l 2.8231181229795874 7.276368990088616 a28.80484090909091,28.80484090909091 0 0,0 -0.4637987856012531,0.17536901502987515 l -2.6974491166180594 -7.323886255225123" fill="#ff5908" stroke="none" /><path d="M 107.2578585660854 119.70592522655815 l 4.955962741319 13.456011896180447 a35.339659090909095,35.339659090909095 0 0,0 -0.5726378439357112,0.20532755735673075 l -4.723605336753554 -13.539326994577138" fill="#ffb110" stroke="none" /><path d="M 106.57524785965236 119.94407469862006 l 3.2664038117336687 9.907672380964486 a31.432227272727275,31.432227272727275 0 0,0 -0.5153069012500193,0.16498499692466012 l -3.0953755653927093 -9.962430224548854" fill="#ff7d0b" stroke="none" /><path d="M 104.13013068566511 120.58985236759428 l 1.4513654695853149 7.235461302448695 a28.379590909090908,28.379590909090908 0 0,0 -0.47979399323493893,0.09195366072280427 l -1.3266038617786715 -7.259372161519967" fill="#ff5307" stroke="none" /><path d="M 101.62511606390274 120.93702456842531 l 0.3660943278500882 4.7165406255052655 a25.730727272727272,25.730727272727272 0 0,0 -0.44187897365650697,0.03047456114631896 l -0.2848525934146509 -4.72214353116787" fill="#ff2d04" stroke="none" /><line stroke="#e1ed5e" stroke-width="0.3" x1="102.19456741930631" x2="102.32365962044197" y1="184.97166512339345" y2="189.96999836594603" /><path d="M 102.22038585953345 185.97133177190398 a86.0,86.0 0 0,1 -42.740103519485714,-10.115201625700543" fill="none" id="id7" stroke="none" /><text fill="#e1ed5e" style="font-size:6.75px; font-family:Arial;" text-anchor="middle"><textPath startOffset="22.20632615414155" xlink:href="#id7">July</textPath></text><path d="M 98.37488393609728 120.93702456842531 l -0.29318571171044955 3.777229568730914 a24.78859090909091,24.78859090909091 0 0,0 -0.4251310414804502,-0.036682095117063176 l 0.3581610709324414 -3.7716232213351875" fill="#ff2003" stroke="none" /><path d="M 96.22490169976321 120.6578951692458 l -1.0535098188319914 5.76496124507203 a26.86043181818182,26.86043181818182 0 0,0 -0.45411062771635397,-0.08703138259424005 l 1.1525880611200405 -5.745972664129321" fill="#ff3e05" stroke="none" /><path d="M 93.42475214034765 119.94407469862007 l -2.366640917120779 7.178507068228318 a28.55856818181818,28.55856818181818 0 0,0 -0.4655458225053459,-0.15793841938584116 l 2.4898564725633507 -7.136705661944354" fill="#ff5507" stroke="none" /><path d="M 90.42595943632237 118.69057910512821 l -3.0445448992494866 5.943604155430772 a27.678,27.678 0 0,0 -0.4221673904700788,-0.22085802583086328 l 3.146403192246061 -5.890316710655192" fill="#ff4906" stroke="none" /><line stroke="#e1ed5e" stroke-width="0.3" x1="58.666819895761336" x2="56.23545636021788" y1="174.27360380694188" y2="178.64263932499728" /><path d="M 58.180547188652646 175.14741091055294 a86.0,86.0 0 0,1 -31.652253787137756,-30.449443065178592" fill="none" id="id8" stroke="none" /><text fill="#e1ed5e" style="font-size:6.75px; font-family:Arial;" text-anchor="middle"><textPath startOffset="22.20632615414155" xlink:href="#id8">August</textPath></text><path d="M 88.24862548938628 117.40417183066458 l -2.7818708386943727 4.120042131550051 a25.971272727272726,25.971272727272726 0 0,0 -0.36835070378092444,-0.2533549728615633 l 2.8523784270981896 -4.071546369323388" fill="#ff3104" stroke="none" /><path d="M 87.95078237400918 117.19931262002967 l -3.685417518422373 5.260644300917258 a27.423136363636363,27.423136363636363 0 0,0 -0.3842799817376997,-0.2741735637035193 l 3.7754248280089575 -5.19642647536952" fill="#ff4506" stroke="none" /><path d="M 87.36589467227662 116.77436683061367 l -4.876477517743773 6.474524361007089 a29.105522727272728,29.105522727272728 0 0,0 -0.39759706250640225,-0.3048604731214021 l 4.987203308743662 -6.38962454605832" fill="#ff5d08" stroke="none" /><path d="M 86.79598089348748 116.32954008644616 l -4.592297826976389 5.679339816883763 a28.303704545454544,28.303704545454544 0 0,0 -0.37620997197532546,-0.30959519469119573 l 4.689377927496403 -5.599449503335387" fill="#ff5207" stroke="none" /><path d="M 86.24171649860922 115.8653595955263 l -9.723041488085144 11.212121741429323 a35.84079545454546,35.84079545454546 0 0,0 -0.46261531837454084,-0.4082042311047721 l 9.914599159366272 -11.043094368552262" fill="#ffb811" stroke="none" /><path d="M 85.70375840098266 115.38237550388516 l -4.929279120424817 5.303773153850949 a28.240704545454545,28.240704545454545 0 0,0 -0.353229575983207,-0.33400061157060607 l 5.019844530798839 -5.218137905534415" fill="#ff5107" stroke="none" /><path d="M 85.18274418774928 114.88116024355367 l -5.991896196985845 6.017738277580689 a29.492113636363637,29.492113636363637 0 0,0 -0.3566570830896235,-0.3612917421693816 l 6.094593905131002 -5.913706041430642" fill="#ff6209" stroke="none" /><path d="M 84.67929136418377 114.36230785411682 l -4.606658528451107 4.318484838862854 a27.31431818181818,27.31431818181818 0 0,0 -0.31860668341827947,-0.3457846292663456 l 4.680311619865118 -4.238548954795166" fill="#ff4406" stroke="none" /><path d="M 84.4343377721795 114.09645910891817 l -8.496728986086202 7.694744429045377 a32.463136363636366,32.463136363636366 0 0,0 -0.37153464465044644,-0.4174231118764942 l 8.627922480384983 -7.547347147428017" fill="#ff8b0c" stroke="none" /><path d="M 84.19399662182784 113.82643327865904 l -2.6295441983686416 2.300215718176911 a24.493636363636362,24.493636363636362 0 0,0 -0.2748623274733526,-0.319726983432506 l 2.6687490354127754 -2.254611635582875" fill="#ff1c02" stroke="none" /><path d="M 83.95833913139862 113.55231037782056 l -6.429060176293566 5.431396390965633 a29.416227272727273,29.416227272727273 0 0,0 -0.32344402596731314,-0.3896091654329647 l 6.521600202154415 -5.319925968418906" fill="#ff6109" stroke="none" /><path d="M 83.50135304334701 112.99209946851258 l -3.384847410856967 2.6654473159605248 a25.30834090909091,25.30834090909091 0 0,0 -0.26657297507676103,-0.3445815046853761 l 3.430227203151796 -2.606787817161896" fill="#ff2703" stroke="none" /><path d="M 82.44556493220864 111.52570212397912 l -6.885727155341163 4.5209566581308085 a29.23725,29.23725 0 0,0 -0.27259577896330817,-0.42307470250936363 l 6.962527797681517 -4.401760355699996" fill="#ff5f08" stroke="none" /><path d="M 82.24976979558568 111.22182372390057 l -8.913439462875782 5.635140799535978 a31.54534090909091,31.54534090909091 0 0,0 -0.28621442366241945,-0.46146878360029236 l 9.009118526206159 -5.480875684570421" fill="#ff7f0b" stroke="none" /><line stroke="#e1ed5e" stroke-width="0.3" x1="26.63291911575756" x2="22.317208475507996" y1="142.92168965132927" y2="145.44649492493687" /><path d="M 25.769776987707644 143.4266507060508 a86.0,86.0 0 0,1 -11.730757126820373,-40.83630448921669" fill="none" id="id9" stroke="none" /><text fill="#e1ed5e" style="font-size:6.75px; font-family:Arial;" text-anchor="middle"><textPath startOffset="21.46611528233685" xlink:href="#id9">September</textPath></text><path d="M 81.87401531095188 110.60418214915194 l -1.6338103471992016 0.955822418262195 a22.892863636363636,22.892863636363636 0 0,0 -0.19605884892170622,-0.34184512894455565 l 1.650021192273285 -0.9275574434593324" fill="#ff0400" stroke="none" /><path d="M 81.69416730710424 110.29060199501025 l -5.550411680816416 3.1201573003507215 a27.367295454545456,27.367295454545456 0 0,0 -0.22730961603728614,-0.4126329796488741 l 5.603297706305219 -3.0241538023040246" fill="#ff4506" stroke="none" /><path d="M 81.51974371655577 109.97397251340807 l -10.042339266753451 5.419947336263341 a32.41159090909091,32.41159090909091 0 0,0 -0.2607550946919997,-0.49325037103411756 l 10.134146869670337 -5.246281950143097" fill="#ff8a0c" stroke="none" /><path d="M 81.35079622478065 109.6543875284942 l -7.686438874172795 3.9791435870282332 a29.65534090909091,29.65534090909091 0 0,0 -0.23077691710977996,-0.45534475126940155 l 7.753794461068842 -3.8462446240561468" fill="#ff6509" stroke="none" /><path d="M 81.18737489456691 109.33194174019688 l -3.865994459166499 1.9177140276104592 a25.3155,25.3155 0 0,0 -0.1902842491509563,-0.3920419135838492 l 3.8984319649321746 -1.8508831580613252" fill="#ff2703" stroke="none" /><path d="M 81.02952815118164 109.00673069616217 l -3.395283313851014 1.6120000961881147 a24.758522727272727,24.758522727272727 0 0,0 -0.17947026707804523,-0.38656298886161006 l 3.422528197768886 -1.5533170400476775" fill="#ff1f03" stroke="none" /><path d="M 80.32549172779594 107.34259656027581 l -6.7219746103646285 2.508664865696052 a28.17484090909091,28.17484090909091 0 0,0 -0.16566234772905883,-0.45583163180313385 l 6.764161219098912 -2.392585436886801" fill="#ff5007" stroke="none" /><path d="M 80.0844068197444 106.66101706037122 l -6.808417104941018 2.2771595141387264 a28.179136363636363,28.179136363636363 0 0,0 -0.149896566261332,-0.461334194261603 l 6.8466059222185995 -2.15962641989932" fill="#ff5007" stroke="none" /><path d="M 79.97269907076064 106.31721596034903 l -4.115610340958687 1.2981878798517252 a25.3155,25.3155 0 0,0 -0.12750962574385985,-0.4167088345885064 l 4.137346739208677 -1.227152072711171" fill="#ff2703" stroke="none" /><path d="M 79.86692584326677 105.97154293290107 l -4.14558299681825 1.229594976638267 a25.32409090909091,25.32409090909091 0 0,0 -0.12035860651871177,-0.4189840988574122 l 4.166134240223066 -1.158053402276259" fill="#ff2803" stroke="none" /><path d="M 79.76711848015287 105.62410040840567 l -5.94156959358965 1.6515682131138563 a27.166840909090908,27.166840909090908 0 0,0 -0.12136064787613554,-0.45162811801625335 l 5.969118317807558 -1.5490491619220639" fill="#ff4206" stroke="none" /><path d="M 79.4281124754447 104.21870165774334 l -7.022961875144206 1.4402072182036982 a28.169113636363637,28.169113636363637 0 0,0 -0.09332033922370887,-0.4758383991982327 l 7.046712147343581 -1.319105091937511" fill="#ff5007" stroke="none" /><path d="M 79.23777060512086 103.15116336523772 l -5.670919837901308 0.860697302805158 a26.735863636363636,26.735863636363636 0 0,0 -0.06514123023073083,-0.45559761251368 l 5.684895119148638 -0.7629542183110775" fill="#ff3c05" stroke="none" /><path d="M 79.10278846688536 102.07522291339032 l -8.557408122810447 0.8498037830333336 a29.5995,29.5995 0 0,0 -0.04598550654746231,-0.5074462328407959 l 8.570768225634984 -0.7023761616439715" fill="#ff6409" stroke="none" /><path d="M 79.07016306316243 101.71520430193888 l -16.921773163433173 1.3867426781175847 a37.9785,37.9785 0 0,0 -0.047786793655549525,-0.6520128326456083 l 16.943136515753057 -1.0952567089752157" fill="#ffd313" stroke="none" /><path d="M 79.0235259727143 100.99374915477108 l -11.677698438599164 0.553224671502672 a32.69079545454545,32.69079545454545 0 0,0 -0.02179054341720447,-0.5623171014949156 l 11.685491114867569 -0.35213032299375957" fill="#ff8e0d" stroke="none" /><path d="M 79.0095281055655 100.63252640178507 l -7.158705028361004 0.2157202542087919 a28.161954545454545,28.161954545454545 0 0,0 -0.010430567482010229,-0.4846674847610831 l 7.161357658528021 -0.09246295365757992" fill="#ff5007" stroke="none" /><line stroke="#e1ed5e" stroke-width="0.3" x1="15.007084014347285" x2="10.007500721073583" y1="101.09737516637583" y2="101.16192664675087" /><path d="M 14.007167355692545 101.11028546245083 a86.0,86.0 0 0,1 10.666146001902534,-42.60595125391555" fill="none" id="id10" stroke="none" /><text fill="#e1ed5e" style="font-size:6.75px; font-family:Arial;" text-anchor="middle"><textPath startOffset="22.20632615414155" xlink:href="#id10">October</textPath></text><path d="M 79.00019446554 99.90962569577889 l -15.032519884520147 -0.0646936240921051 a36.03265909090909,36.03265909090909 0 0,0 0.008007817309859751,-0.6202142755729215 l 15.029179060092572 0.3234441577254986" fill="#ffba11" stroke="none" /><path d="M 79.01574976396665 99.18683210126434 l -13.32166049643454 -0.5162322480768868 a34.33165909090909,34.33165909090909 0 0,0 0.027966229066812055,-0.5903228947110701 l 13.310800659134228 0.7454662494109661" fill="#ffa40f" stroke="none" /><path d="M 79.03285615573316 98.82574320788736 l -15.635294469869082 -0.8756486274092723 a36.65979545454545,36.65979545454545 0 0,0 0.04070879828090953,-0.6297470912650435 l 15.617905080583759 1.1446547829273275" fill="#ffc212" stroke="none" /><path d="M 79.05617556472873 98.46500227214037 l -16.007745812685737 -1.1732266724527147 a37.050681818181815,37.050681818181815 0 0,0 0.05209240502482822,-0.6356592865263673 l 15.985178923841413 1.4485998761868604" fill="#ffc712" stroke="none" /><path d="M 79.12142395522702 97.74499172005258 l -35.42252895986932 -3.825840226358753 a56.628536475,56.628536475 0 0,0 0.11301342731383997,-0.9682300290879862 l 35.35142517955189 4.435013993771601" fill="#55ff2b" stroke="none" /><path d="M 79.16333360222342 97.38593545837743 l -11.372557807786468 -1.4267445447060416 a32.461704545454545,32.461704545454545 0 0,0 0.07432803009275978,-0.5538301582834588 l 11.346313778635873 1.62229304505416" fill="#ff8b0c" stroke="none" /><path d="M 79.26566170972629 96.67025291283419 l -16.30991324010599 -2.6192244644067246 a37.51888636363636,37.51888636363636 0 0,0 0.10789027168258518,-0.6367744907887374 l 16.26241110690318 2.89958474351129" fill="#ffcd13" stroke="none" /><path d="M 79.3925641242962 95.95851677861259 l -14.15730844660851 -2.776498973093151 a35.427,35.427 0 0,0 0.12251112779140415,-0.59740776805234 l 14.107418022902111 3.0197823973088935" fill="#ffb210" stroke="none" /><path d="M 79.54389044137918 95.25157060432595 l -29.51398188886196 -6.851012348308536 a51.29870454545454,51.29870454545454 0 0,0 0.2070689302174283,-0.8584343987625693 l 29.391680158383714 7.358031978730502" fill="#8dff24" stroke="none" /><path d="M 79.91906864156998 93.8553929516997 l -8.673593192430967 -2.6540512943851664 a30.07056818181818,30.07056818181818 0 0,0 0.1557147328450981,-0.49365825600690355 l 8.626622975817666 2.8029597168184845" fill="#ff6a09" stroke="none" /><path d="M 80.14247586403 93.16781622104843 l -13.541928845998086 -4.6592387834368365 a35.321045454545455,35.321045454545455 0 0,0 0.2027544386724826,-0.5732141013334596 l 13.459721326515794 4.891650511196907" fill="#ffb110" stroke="none" /><path d="M 80.2630227832202 92.82701384747504 l -11.882557419829478 -4.318463708645139 a33.64295454545454,33.64295454545454 0 0,0 0.2024911944663698,-0.5425757288818573 l 11.806461636861481 4.522362574556338" fill="#ff9b0e" stroke="none" /><path d="M 80.38941819471856 92.48833698450439 l -9.85030610178466 -3.773074188760651 a31.548204545454546,31.548204545454546 0 0,0 0.1986131490743258,-0.5054488006223896 l 9.783899402828643 3.942071994278804" fill="#ff7f0b" stroke="none" /><path d="M 80.65960295795067 91.81776055985345 l -20.87971682480517 -8.833471315587298 a43.671409090909094,43.671409090909094 0 0,0 0.29885653336307366,-0.6898020834553863 l 20.724569581599415 9.191572543629283" fill="#e5ff1a" stroke="none" /><path d="M 80.803312248108 91.48605970444005 l -11.626648452276592 -5.156545339463111 a33.71884090909091,33.71884090909091 0 0,0 0.2398817479285493,-0.5285476340299211 l 11.53616438738469 5.355914982335103" fill="#ff9c0e" stroke="none" /><path d="M 80.95270993114464 91.15688171328213 l -27.437188451230035 -12.738310912056034 a51.25002272727273,51.25002272727273 0 0,0 0.37837600425179274,-0.7969563628660002 l 27.213854253136493 13.208709690562566" fill="#8eff24" stroke="none" /><path d="M 81.10775173730289 90.83032412892265 l -9.577081761351344 -4.648400461463185 a31.645568181818184,31.645568181818184 0 0,0 0.2420735077528174,-0.48800542010400816 l 9.495648240645114 4.812565470066154" fill="#ff800b" stroke="none" /><path d="M 81.26839172434947 90.50648371742162 l -25.428467305732134 -12.887604996618812 a49.5078465,49.5078465 0 0,0 0.39179700346938406,-0.7568271042213417 l 25.202860869102636 13.32340482310049" fill="#a1ff22" stroke="none" /><path d="M 81.43458229118936 90.18545643968196 l -34.1631095149715 -18.0602091345072 a59.64310036363637,59.64310036363637 0 0,0 0.4876303461874373,-0.903504973270602 l 33.84717106956559 18.645595091110273" fill="#36ff2e" stroke="none" /><path d="M 81.6062741919709 89.86733742301443 l -14.471263779466899 -7.971872282443396 a37.52175,37.52175 0 0,0 0.3165091094207495,-0.5630343886240236 l 14.331897028753719 8.219790181002205" fill="#ffcd13" stroke="none" /><line stroke="#e1ed5e" stroke-width="0.3" x1="26.266209847984243" x2="21.928928074336255" y1="57.711370442889674" y2="55.22380399835377" /><path d="M 25.398753493254645 57.213857153982495 a86.0,86.0 0 0,1 29.58750427330803,-30.492523968695096" fill="none" id="id11" stroke="none" /><text fill="#e1ed5e" style="font-size:6.75px; font-family:Arial;" text-anchor="middle"><textPath startOffset="21.46611528233685" xlink:href="#id11">November</textPath></text><path d="M 81.78341655067845 89.55222093294921 l -6.210198903177798 -3.561742863767314 a28.15909090909091,28.15909090909091 0 0,0 0.24476998196024918,-0.4183912425254633 l 6.147969246747227 3.6681135186466687" fill="#ff5007" stroke="none" /><path d="M 81.96595687620814 89.24020034530311 l -34.42862778178447 -20.541435704421346 a61.09090909090909,61.09090909090909 0 0,0 0.5465722231673621,-0.8984210233976017 l 34.06993976033088 21.13102450102602" fill="#30ff38" stroke="none" /><path d="M 82.15384107792192 88.93136811851018 l -51.50036429842873 -31.94180757164022 a81.60170454545454,81.60170454545454 0 0,0 0.7506284484510575,-1.1873139416377727 l 50.94290825373171 32.82356916099221" fill="#4ae8ff" stroke="none" /><path d="M 82.34701348167596 88.62581576622439 l -12.066217489513535 -7.774513427972756 a35.35397727272727,35.35397727272727 0 0,0 0.33401657354231945,-0.5087301570648708 l 11.930604280613295 7.9810616490152935" fill="#ffb110" stroke="none" /><path d="M 82.54541684631803 88.32363383020206 l -9.788450893570515 -6.548053073631005 a32.77670454545455,32.77670454545455 0 0,0 0.3177397686408922,-0.46624390345236816 l 9.674286659260883 6.715575000353788" fill="#ff8f0d" stroke="none" /><path d="M 82.7489923806493 88.02491185347247 l -20.965855282835886 -14.553814514444527 a46.52215909090909,46.52215909090909 0 0,0 0.4623136905594766,-0.6539099290945259 l 20.71222897247253 14.91255094387084" fill="#c3ff1e" stroke="none" /><path d="M 82.95767976084542 87.72973835380427 l -23.26857700834572 -16.7530901908002 a49.67215909090909,49.67215909090909 0 0,0 0.5055617864237183,-0.6895857085201892 l 22.976752609408365 17.151138342991892" fill="#9fff22" stroke="none" /><path d="M 83.17141714833178 87.43820079747577 l -18.937892725007995 -14.136306534386076 a44.63215909090909,44.63215909090909 0 0,0 0.46486319204414683,-0.6117054700792277 l 18.69175359273974 14.460196780346328" fill="#d9ff1c" stroke="none" /><path d="M 83.39014120810768 87.1503855733568 l -29.94870789215404 -23.16873092131225 a58.86443181818182,58.86443181818182 0 0,0 0.6268947606805132,-0.7960926839045651 l 29.545459050879554 23.680815999169862" fill="#3eff2d" stroke="none" /><path d="M 83.6137871275137 86.86637796730984 l -21.1438837137817 -16.94691623750564 a48.09726533181818,48.09726533181818 0 0,0 0.5233475073963001,-0.6415621627620308 l 20.849037714309006 17.308362569875754" fill="#b1ff20" stroke="none" /><path d="M 83.84228863543731 86.58626213691792 l -14.679647995418033 -12.186685706288774 a40.07897727272727,40.07897727272727 0 0,0 0.4452380961913351,-0.5270214705657953 l 14.467699285739574 12.437566126483684" fill="#ffee16" stroke="none" /><path d="M 84.07557802195018 86.31012108654704 l -23.436044208832175 -20.147457023651057 a51.905795454545455,51.905795454545455 0 0,0 0.5882857926498096,-0.6725123564806573 l 23.08576655260452 20.547884936334658" fill="#86ff25" stroke="none" /><path d="M 84.31358615837235 86.03803664274999 l -13.508141374074357 -12.023154354686433 a39.08386363636363,39.08386363636363 0 0,0 0.45161657431709257,-0.49868630114763757 l 13.29918115914122 12.253893443103626" fill="#ffe115" stroke="none" /><path d="M 84.5562425177563 85.77008943001954 l -36.72279833135789 -33.83646348600468 a70.9346590909091,70.9346590909091 0 0,0 0.8351126539122873,-0.8908399526477228 l 36.13491835547515 34.46357285553045" fill="#3dffaa" stroke="none" /><path d="M 84.80347519578584 85.50635884689758 l -45.58957441264248 -43.480923459307235 a84.0,84.0 0 0,0 1.0069429451875451,-1.0377432177995054 l 44.834367203751825 44.259230872656865" fill="#4dd2ff" stroke="none" /><path d="M 85.31137513191541 84.99185889309783 l -20.25527986070528 -20.695885492302033 a49.95852272727272,49.95852272727272 0 0,0 0.6197634426106623,-0.5962119407535298 l 19.89603317448219 21.04148051981787" fill="#9cff22" stroke="none" /><path d="M 85.57189188830299 84.74124197986013 l -32.615722121135086 -34.49346287439118 a68.47193181818182,68.47193181818182 0 0,0 0.8633727488947947,-0.8024108763363719 l 32.01714148844543 35.0497783368022" fill="#3aff8e" stroke="none" /><path d="M 85.83668400450813 84.49514656593479 l -20.168240084035077 -22.07855890707628 a50.90352272727273,50.90352272727273 0 0,0 0.6520232526807198,-0.5853929140843767 l 19.785205843758387 22.422450829929936" fill="#91ff23" stroke="none" /><path d="M 86.10567301691215 84.25364557470407 l -19.557844129489677 -22.164783212061458 a50.559886363636366,50.559886363636366 0 0,0 0.6575342145535011,-0.5702071914110486 l 19.173416116289403 22.498155396892187" fill="#95ff23" stroke="none" /><path d="M 86.37877921826538 84.01681056812374 l -19.229139292214676 -22.563541171840765 a50.64579545454545,50.64579545454545 0 0,0 0.6683857378541819,-0.5597538337080817 l 18.83789601740138 22.89119616294266" fill="#94ff23" stroke="none" /><path d="M 86.65592168130627 83.78471172551755 l -11.959630193129254 -14.532952116004893 a39.82125,39.82125 0 0,0 0.533029430472066,-0.4310060630628809 l 11.707697364092688 14.73666427633191" fill="#ffea16" stroke="none" /><path d="M 87.22198572758235 83.33499621200491 l -12.602316576171912 -16.43585998591016 a41.71125,41.71125 0 0,0 0.5735373270973979,-0.43197642409399684 l 12.317533095316124 16.65035299951001" fill="#fcff18" stroke="none" /><path d="M 87.80319425747018 82.90503203632743 l -13.326396274366395 -18.678195110308152 a43.944886363636364,43.944886363636364 0 0,0 0.6195577346098745,-0.43403978642068153 l 13.00290740017286 18.904819739492776" fill="#e1ff1b" stroke="none" /><path d="M 88.09926311788651 82.69761687909137 l -8.150652407783863 -11.850166257922305 a35.38261363636364,35.38261363636364 0 0,0 0.5047840450038907,-0.34083244049405537 l 7.945463668373431 11.988710610715026" fill="#ffb210" stroke="none" /><path d="M 88.39885842347998 82.49532879139004 l -8.60989268593776 -12.991250870844507 a36.58534090909091,36.58534090909091 0 0,0 0.5279316508751243,-0.3433814311034283 l 8.38499400927835 13.13753122610747" fill="#ffc112" stroke="none" /><line stroke="#e1ed5e" stroke-width="0.3" x1="56.76296977257108" x2="54.21961505331056" y1="26.818313649435495" y2="22.513508569990535" /><path d="M 56.25429882871898 25.957352633546506 a86.0,86.0 0 0,1 42.26535254187918,-11.944610805530505" fill="none" id="id12" stroke="none" /><text fill="#e1ed5e" style="font-size:6.75px; font-family:Arial;" text-anchor="middle"><textPath startOffset="22.20632615414155" xlink:href="#id12">December</textPath></text><path d="M 89.3179101791058 81.91981866633112 l -7.49081548690206 -12.678727160235299 a35.72625,35.72625 0 0,0 0.5321565588933701,-0.30825942724018224 l 7.271462195543367 12.80579074486553" fill="#ffb610" stroke="none" /><path d="M 89.63071344664047 81.73862282372117 l -2.294204649930796 -4.040329700251693 a25.646250000000002,25.646250000000002 0 0,0 0.38576345622076436,-0.2146769457296246 l 2.224317104637986 4.079222043541502" fill="#ff2c04" stroke="none" /><path d="M 89.94658935756843 81.56283822128135 l -8.612802594692228 -15.795200301109077 a38.990795454545456,38.990795454545456 0 0,0 0.5920194414515931,-0.3162362826918086 l 8.33963810671233 15.941115310302633" fill="#ffe015" stroke="none" /><path d="M 90.58718382345135 81.22770947309562 l -4.550240910799763 -9.074695897892191 a31.15159090909091,31.15159090909091 0 0,0 0.4814088727779431,-0.23622524313635612 l 4.393360771011394 9.151676301163377" fill="#ff790b" stroke="none" /><path d="M 91.90106846888425 80.62456947434976 l -6.532524546347686 -15.628046121711975 a37.93840909090909,37.93840909090909 0 0,0 0.6046951183277189,-0.24667032175607878 l 6.262545558431587 15.73817732965163" fill="#ffd313" stroke="none" /><path d="M 92.23578459929587 80.48803036053334 l -1.058756645550564 -2.660723132654544 a23.863636363636363,23.863636363636363 0 0,0 0.38297367613673006,-0.1485878364880097 l 1.0127998044141564 2.6785536730331057" fill="#ff1202" stroke="none" /><path d="M 93.25333710446033 80.11325718540243 l -4.850697288645394 -14.29811611226805 a36.09852272727272,36.09852272727272 0 0,0 0.5901544259021675,-0.1945646355830192 l 4.603860040500817 14.379494472110302" fill="#ffbb11" stroke="none" /></svg>